<svg xmlns="http://www.w3.org/2000/svg" version="1.1" xmlns:xlink="http://www.w3.org/1999/xlink" xmlns:svgjs="http://svgjs.dev/svgjs" width="1000" height="1000" viewBox="0 0 1000 1000"><rect width="1000" height="1000" fill="#ffffff"></rect><g transform="matrix(0.7,0,0,0.7,149.57575757575756,282.1265587044535)"><svg viewBox="0 0 396 247" data-background-color="#ffffff" preserveAspectRatio="xMidYMid meet" height="623" width="1000" xmlns="http://www.w3.org/2000/svg" xmlns:xlink="http://www.w3.org/1999/xlink"><defs></defs><g id="tight-bounds" transform="matrix(1,0,0,1,0.2400000000000091,-0.09999999999999432)"><svg viewBox="0 0 395.52 247.2" height="247.2" width="395.52"><g><svg></svg></g><g><svg viewBox="0 0 395.52 247.2" height="247.2" width="395.52"><g transform="matrix(2.6290900946195315, 0, 0, 2.6290900946195315, 66.30549526902342, 1)"><svg xmlns="http://www.w3.org/2000/svg" xmlns:xlink="http://www.w3.org/1999/xlink" version="1.1" x="0" y="0" viewBox="0 3.3677968978881836 100 93.26420593261719" enable-background="new 0 0 100 100" xml:space="preserve" height="93.26420593261719" width="100" class="icon-none" data-fill-palette-color="accent" id="none"><g fill="#ff851b" data-fill-palette-color="accent"><path d="M35.125 72.973c0 0.942 0.761 1.705 1.703 1.705h15.826l-16.359 5.46c-0.899 0.292-1.381 1.265-1.089 2.153 0.241 0.722 0.913 1.173 1.622 1.173 0.178 0 0.365-0.032 0.544-0.085l26.336-8.785c0.795-0.262 1.288-1.066 1.15-1.894-0.136-0.825-0.847-1.433-1.684-1.433H36.827C35.886 71.268 35.125 72.029 35.125 72.973z" fill="#000000" data-fill-palette-color="accent"></path><path d="M61.959 89.331c-0.029 0.031-3.981 3.89-11.953 3.89-4.3 0-7.426-1.107-9.394-2.144l23.094-7.698c0.9-0.303 1.38-1.275 1.089-2.164-0.306-0.899-1.267-1.382-2.167-1.077l-26.334 8.774c-0.566 0.188-0.994 0.659-1.129 1.233-0.137 0.577 0.04 1.183 0.459 1.6 0.199 0.199 4.998 4.887 14.381 4.887 9.37 0 14.172-4.688 14.372-4.887 0.669-0.668 0.669-1.756 0-2.414C63.707 88.662 62.629 88.662 61.959 89.331z" fill="#000000" data-fill-palette-color="accent"></path><path d="M50.006 5.418c-15.471 0-28.051 12.581-28.051 28.04 0 7.771 4.182 13.984 7.865 19.456 2.844 4.213 5.305 7.854 5.305 11.284 0 0.941 0.761 1.704 1.703 1.704s1.716-0.763 1.716-1.704c0-4.476-2.868-8.713-5.89-13.199-3.587-5.313-7.289-10.804-7.289-17.541 0-13.575 11.055-24.63 24.642-24.63 13.577 0 24.63 11.056 24.63 24.63 0 6.737-3.713 12.227-7.289 17.541-3.023 4.486-5.878 8.724-5.878 13.199 0 0.941 0.762 1.704 1.704 1.704 0.941 0 1.706-0.763 1.706-1.704 0-3.43 2.457-7.071 5.301-11.284 3.683-5.472 7.866-11.684 7.866-19.456C78.047 17.999 65.463 5.418 50.006 5.418z" fill="#000000" data-fill-palette-color="accent"></path><path d="M51.71 15.897c0-0.941-0.764-1.705-1.704-1.705-10.627 0-19.276 8.65-19.276 19.265 0 0.953 0.764 1.716 1.704 1.716 0.952 0 1.716-0.763 1.716-1.716 0-8.732 7.112-15.845 15.856-15.845C50.946 17.612 51.71 16.838 51.71 15.897z" fill="#000000" data-fill-palette-color="accent"></path><path d="M20.584 14.203c0.304 0.219 0.66 0.324 1.005 0.324 0.533 0 1.046-0.24 1.38-0.701 0.554-0.763 0.386-1.83-0.376-2.385l-10.658-7.75c-0.764-0.554-1.83-0.377-2.385 0.387C8.996 4.832 9.164 5.897 9.927 6.463L20.584 14.203z" fill="#000000" data-fill-palette-color="accent"></path><path d="M78.412 14.527c0.347 0 0.702-0.105 1.007-0.324l10.656-7.74c0.764-0.566 0.932-1.631 0.375-2.385-0.554-0.764-1.621-0.941-2.385-0.387l-10.658 7.75c-0.762 0.555-0.929 1.622-0.375 2.385C77.368 14.287 77.88 14.527 78.412 14.527z" fill="#000000" data-fill-palette-color="accent"></path><path d="M98.297 31.753h-13.17c-0.951 0-1.714 0.763-1.714 1.704 0 0.953 0.763 1.716 1.714 1.716h13.17c0.939 0 1.703-0.763 1.703-1.716C100 32.517 99.236 31.753 98.297 31.753z" fill="#000000" data-fill-palette-color="accent"></path><path d="M16.59 33.458c0-0.941-0.764-1.704-1.706-1.704H1.705C0.765 31.753 0 32.517 0 33.458c0 0.953 0.765 1.716 1.705 1.716h13.179C15.826 35.173 16.59 34.41 16.59 33.458z" fill="#000000" data-fill-palette-color="accent"></path><path d="M79.419 52.724c-0.767-0.554-1.834-0.388-2.387 0.377-0.554 0.764-0.387 1.83 0.375 2.384l10.658 7.74c0.305 0.221 0.661 0.335 1.005 0.335 0.524 0 1.047-0.251 1.38-0.711 0.557-0.764 0.389-1.831-0.375-2.385L79.419 52.724z" fill="#000000" data-fill-palette-color="accent"></path><path d="M20.584 52.724l-10.657 7.74c-0.764 0.554-0.931 1.621-0.377 2.385 0.337 0.46 0.857 0.711 1.38 0.711 0.355 0 0.701-0.114 1.005-0.335l10.658-7.74c0.763-0.554 0.93-1.62 0.376-2.384C22.414 52.336 21.347 52.17 20.584 52.724z" fill="#000000" data-fill-palette-color="accent"></path></g></svg></g><rect width="348.05760000000004" height="151.0866894383279" fill="#ffffff" y="48.05665528083604" x="23.731199999999973" data-fill-palette-color="quaternary"></rect><g transform="matrix(1,0,0,1,39.55199999999999,65.7875868416465)"><svg viewBox="0 0 316.416 115.62482631670699" height="115.62482631670699" width="316.416"><g><svg viewBox="0 0 316.416 115.62482631670699" height="115.62482631670699" width="316.416"><g><svg viewBox="0 0 316.416 115.62482631670699" height="115.62482631670699" width="316.416"><g><svg viewBox="0 0 316.416 115.62482631670699" height="115.62482631670699" width="316.416"><g><svg viewBox="0 0 316.416 115.62482631670699" height="115.62482631670699" width="316.416"><g><svg viewBox="0 0 316.416 75.1068789746118" height="75.1068789746118" width="316.416"><g transform="matrix(1,0,0,1,0,0)"><svg width="316.416" viewBox="1.0499999523162842 -37.70000076293945 202.8300018310547 48.150001525878906" height="75.1068789746118" data-palette-color="#0074d9"><path d="M19.35-37.2L19.35-37.2Q21.3-37.2 23.73-36.8 26.15-36.4 28.43-35.55 30.7-34.7 32.2-33.25L32.2-33.25 28.55-29.15Q26.95-30.35 25.68-31.08 24.4-31.8 22.95-32.15 21.5-32.5 19.35-32.5L19.35-32.5Q16.25-32.5 14.13-31.33 12-30.15 10.73-28.15 9.45-26.15 8.88-23.63 8.3-21.1 8.3-18.4L8.3-18.4Q8.3-16.1 8.85-13.63 9.4-11.15 10.6-9.03 11.8-6.9 13.73-5.58 15.65-4.25 18.4-4.25L18.4-4.25Q20.75-4.25 22.53-5.2 24.3-6.15 25.3-7.88 26.3-9.6 26.3-12L26.3-12 26.3-15.1 18.7-15.1 19.35-19.5 33.25-19.5 33.15-10.3Q33.1-7.7 33.18-5.13 33.25-2.55 33.4 0.05L33.4 0.05 29.85 0.05 28.15-3.75Q25.7-1.45 23.2-0.45 20.7 0.55 17.25 0.55L17.25 0.55Q13.2 0.55 10.15-0.9 7.1-2.35 5.08-4.88 3.05-7.4 2.05-10.78 1.05-14.15 1.05-17.95L1.05-17.95Q1.05-23.7 3.2-28.03 5.35-32.35 9.45-34.77 13.55-37.2 19.35-37.2ZM37.95-36.6L45.8-36.6 45.8-12.25Q45.8-8.6 48-6.4 50.2-4.2 53.85-4.2L53.85-4.2Q57.55-4.2 59.72-6.35 61.9-8.5 61.9-12.25L61.9-12.25 61.9-36.6 67.55-36.6 67.55-13.9Q67.55-8.65 65.65-5.48 63.75-2.3 60.5-0.88 57.25 0.55 53.15 0.55L53.15 0.55Q46.2 0.55 42.47-3.2 38.75-6.95 38.75-13.9L38.75-13.9 38.75-33.6 37.95-36.6ZM74.05-33.55L73.35-36.6 80.95-36.6 80.95-4.9Q80.95-1.75 80.57 0.98 80.2 3.7 79.07 5.78 77.95 7.85 75.72 9.08 73.5 10.3 69.8 10.45L69.8 10.45 68.9 6.7Q70.7 6.45 71.75 5.58 72.8 4.7 73.3 3.43 73.8 2.15 73.92 0.65 74.05-0.85 74.05-2.35L74.05-2.35 74.05-33.55ZM87.44-33.55L86.74-36.6 94.34-36.6 94.34-4.9Q94.34-1.75 93.97 0.98 93.59 3.7 92.47 5.78 91.34 7.85 89.12 9.08 86.89 10.3 83.19 10.45L83.19 10.45 82.29 6.7Q84.09 6.45 85.14 5.58 86.19 4.7 86.69 3.43 87.19 2.15 87.32 0.65 87.44-0.85 87.44-2.35L87.44-2.35 87.44-33.55ZM107.59-33.9L107.59-33.9Q107.59-32.35 106.49-31.2 105.39-30.05 103.79-30.05L103.79-30.05Q102.24-30.05 101.09-31.2 99.94-32.35 99.94-33.9L99.94-33.9Q99.94-35.5 101.09-36.6 102.24-37.7 103.84-37.7L103.84-37.7Q105.39-37.7 106.49-36.6 107.59-35.5 107.59-33.9ZM100.19-24.85L106.74-24.85 106.74 0 100.74 0 100.74-22.15 100.19-24.85ZM144.04-18.25L144.04-18.25Q144.04-12.95 141.89-8.83 139.74-4.7 135.76-2.35 131.79 0 126.39 0L126.39 0 113.39 0 113.39-33.55Q113.39-33.6 113.21-34.3 113.04-35 112.84-35.75 112.64-36.5 112.59-36.6L112.59-36.6 126.44-36.6Q132.04-36.6 135.96-34.27 139.89-31.95 141.96-27.83 144.04-23.7 144.04-18.25ZM136.64-18.05L136.64-18.05Q136.64-20.6 136.06-23.03 135.49-25.45 134.21-27.4 132.94-29.35 130.91-30.5 128.89-31.65 125.99-31.65L125.99-31.65 120.29-31.65 120.29-4.95 126.09-4.95Q129.89-4.95 132.21-6.83 134.54-8.7 135.59-11.7 136.64-14.7 136.64-18.05ZM148.34-33.55L147.59-36.6 170.59-36.6 170.59-31.65 155.19-31.65 155.19-21.3 166.99-21.3 166.99-16.35 155.19-16.35 155.19-4.95 170.59-4.95 170.59 0 148.34 0 148.34-33.55ZM185.48-36.6L190.93-36.6 203.88 0 196.48 0 192.88-10.5 181.98-10.5 178.33 0 172.53 0 185.48-36.6ZM191.23-15.4L187.43-27.9 183.68-15.4 191.23-15.4Z" opacity="1" transform="matrix(1,0,0,1,0,0)" fill="#000000" class="undefined-text-0" data-fill-palette-color="primary" id="text-0"></path></svg></g></svg></g><g transform="matrix(1,0,0,1,0,92.83781053542226)"><svg viewBox="0 0 316.416 22.78701578128473" height="22.78701578128473" width="316.416"><g transform="matrix(1,0,0,1,0,0)"><svg width="316.416" viewBox="1.7999999523162842 -37.95000076293945 674.77001953125 48.599998474121094" height="22.78701578128473" data-palette-color="#001f3f"><path d="M10.2-8.15L17.25-30.6 22.5-30.6 29.5-8.2 31.3-33.4 37.95-33.4 34.6 0 27.1 0 19.85-24.7 12.65 0 5.15 0 1.8-33.4 8.4-33.4 10.2-8.15ZM49.15-23.35Q50.65-24.5 52.7-25.3 54.75-26.1 56.85-26.1 58.95-26.1 60.5-25.48 62.05-24.85 62.85-23.6L62.85-23.6Q64.3-21.35 64.3-17.55L64.3-17.55 64.3 0 57 0 57-16.3Q57-19.5 55.65-20.1L55.65-20.1Q55-20.4 53.9-20.4L53.9-20.4Q51.1-20.4 49.15-18.55L49.15-18.55 49.15 0 42.15 0 42.15-34.85 49.15-35.3 49.15-23.35ZM88.55-12.1L75-12.1Q75.09-4.6 81.59-4.6L81.59-4.6Q84.65-4.6 87.65-5.75L87.65-5.75 88.84-1Q85 0.65 80.3 0.65L80.3 0.65Q68.45 0.65 68.45-13.3L68.45-13.3Q68.45-18.8 71.39-22.45 74.34-26.1 79.9-26.1L79.9-26.1Q84.34-26.1 86.77-23.73 89.2-21.35 89.2-17.1L89.2-17.1Q89.2-14.6 88.55-12.1L88.55-12.1ZM75.05-15.9L83.59-15.9 83.59-16.2Q83.59-21.15 80.09-21.15L80.09-21.15Q75.89-21.15 75.05-15.9L75.05-15.9ZM106.19-20.5L106.19-20.5Q102.09-20.5 100.44-18.15L100.44-18.15 100.44 0 93.44 0 93.44-25.65 99.24-25.65 99.79-22.4Q102.69-26.2 107.19-26.2L107.19-26.2Q108.44-26.2 109.49-25.95L109.49-25.95 108.34-20.2Q107.24-20.5 106.19-20.5ZM130.59-12.1L117.04-12.1Q117.14-4.6 123.64-4.6L123.64-4.6Q126.69-4.6 129.69-5.75L129.69-5.75 130.89-1Q127.04 0.65 122.34 0.65L122.34 0.65Q110.49 0.65 110.49-13.3L110.49-13.3Q110.49-18.8 113.44-22.45 116.39-26.1 121.94-26.1L121.94-26.1Q126.39-26.1 128.82-23.73 131.24-21.35 131.24-17.1L131.24-17.1Q131.24-14.6 130.59-12.1L130.59-12.1ZM117.09-15.9L125.64-15.9 125.64-16.2Q125.64-21.15 122.14-21.15L122.14-21.15Q117.94-21.15 117.09-15.9L117.09-15.9ZM145.44 10.65L145.44 10.65Q143.19 10.65 140.19 9.75L140.19 9.75 141.24 4.9Q141.24 4.95 142.74 5.18 144.24 5.4 144.69 5.4L144.69 5.4Q147.49 5.4 148.66 4.38 149.84 3.35 150.79-0.65L150.79-0.65 141.44-25 148.09-25.85 153.84-8.15 158.94-25.65 165.69-25.65 157.59-2.1Q154.99 5.4 152.66 8.03 150.34 10.65 145.44 10.65ZM189.33-12.75Q189.33-5.8 186.23-2.58 183.13 0.65 178.08 0.65 173.03 0.65 170.06-2.55 167.08-5.75 167.08-12.7 167.08-19.65 170.16-22.88 173.23-26.1 178.23-26.1L178.23-26.1Q189.33-26.1 189.33-12.75L189.33-12.75ZM182.53-12.83Q182.53-17.4 181.43-19.05 180.33-20.7 178.21-20.7 176.08-20.7 174.96-19.05 173.83-17.4 173.83-12.7L173.83-12.7Q173.83-4.7 178.18-4.7L178.18-4.7Q180.23-4.7 181.38-6.48 182.53-8.25 182.53-12.83ZM209.73 0.65L209.13-2.35Q205.28 0.65 200.96 0.65 196.63 0.65 195.06-1.58 193.48-3.8 193.48-7.9L193.48-7.9 193.48-25.65 200.48-25.65 200.48-9.15Q200.48-7.15 201.08-6.1 201.68-5.05 204.06-5.05 206.43-5.05 208.48-6.6L208.48-6.6 208.48-25.65 215.48-25.65 215.48 0.65 209.73 0.65ZM233.53-20.5L233.53-20.5Q229.43-20.5 227.78-18.15L227.78-18.15 227.78 0 220.78 0 220.78-25.65 226.58-25.65 227.13-22.4Q230.03-26.2 234.53-26.2L234.53-26.2Q235.78-26.2 236.83-25.95L236.83-25.95 235.68-20.2Q234.58-20.5 233.53-20.5ZM254.97-26.2L254.97 0 247.97 0 247.97-25.6 254.97-26.2ZM247.32-33.85Q247.32-35.55 248.52-36.75 249.72-37.95 251.42-37.95 253.12-37.95 254.32-36.75 255.52-35.55 255.52-33.88 255.52-32.2 254.32-30.95 253.12-29.7 251.42-29.7 249.72-29.7 248.52-30.93 247.32-32.15 247.32-33.85ZM259.32-12.2L259.32-12.2Q259.32-26.1 270.17-26.1L270.17-26.1Q272.92-26.1 274.62-25.2L274.62-25.2 274.62-35.5 281.67-35.5 281.67 0.35 275.87 0.35 275.47-1.55Q272.67 0.45 268.82 0.45L268.82 0.45Q264.12 0.45 261.72-2.95 259.32-6.35 259.32-12.2ZM270.87-20.6L270.87-20.6Q266.02-20.6 266.02-12.35L266.02-12.35Q266.02-4.8 270.52-4.8L270.52-4.8Q272.82-4.8 274.67-5.95L274.67-5.95 274.67-19.9Q273.02-20.6 270.87-20.6ZM306.07-12.1L292.52-12.1Q292.62-4.6 299.12-4.6L299.12-4.6Q302.17-4.6 305.17-5.75L305.17-5.75 306.37-1Q302.52 0.65 297.82 0.65L297.82 0.65Q285.97 0.65 285.97-13.3L285.97-13.3Q285.97-18.8 288.92-22.45 291.87-26.1 297.42-26.1L297.42-26.1Q301.87-26.1 304.29-23.73 306.72-21.35 306.72-17.1L306.72-17.1Q306.72-14.6 306.07-12.1L306.07-12.1ZM292.57-15.9L301.12-15.9 301.12-16.2Q301.12-21.15 297.62-21.15L297.62-21.15Q293.42-21.15 292.57-15.9L292.57-15.9ZM333.02-5L333.97-0.85Q331.42 0.55 328.39 0.55 325.37 0.55 323.92-1.75L323.92-1.75Q321.02 0.65 317.12 0.65 313.22 0.65 311.22-1.33 309.22-3.3 309.22-6.7L309.22-6.7Q309.22-8.95 310.17-10.55 311.12-12.15 312.62-12.9L312.62-12.9Q315.37-14.2 318.34-14.2 321.32-14.2 323.12-14.05L323.12-14.05 323.12-16.5Q323.12-19.1 322.07-19.85 321.02-20.6 318.49-20.6 315.97-20.6 312.82-19.55L312.82-19.55 311.37-23.95Q313.22-25.05 315.89-25.63 318.57-26.2 320.47-26.2L320.47-26.2Q325.57-26.2 327.74-24.03 329.92-21.85 329.92-16.6L329.92-16.6 329.92-6.1Q329.92-4.7 331.17-4.7L331.17-4.7Q331.82-4.7 333.02-5L333.02-5ZM319.02-4L319.02-4Q321.12-4 323.12-5.3L323.12-5.3 323.12-10.55Q321.72-10.65 320.67-10.65L320.67-10.65Q315.72-10.65 315.72-7.45L315.72-7.45Q315.72-4 319.02-4ZM345.51-20.7L345.51-20.7Q342.11-20.7 342.11-18.45L342.11-18.45Q342.11-17.25 343.26-16.4 344.41-15.55 346.04-14.93 347.66-14.3 349.29-13.53 350.91-12.75 352.06-11.3 353.21-9.85 353.21-7.75L353.21-7.75Q353.21-4 350.66-1.68 348.11 0.65 343.16 0.65L343.16 0.65Q340.91 0.65 338.44 0.15 335.96-0.35 334.81-1L334.81-1 336.51-6Q340.41-4.7 343.54-4.7 346.66-4.7 346.66-7.15L346.66-7.15Q346.66-8.2 345.51-9.05 344.36-9.9 342.74-10.63 341.11-11.35 339.49-12.2 337.86-13.05 336.71-14.6 335.56-16.15 335.56-18.2L335.56-18.2Q335.56-22.05 338.11-24.1 340.66-26.15 345.41-26.15 350.16-26.15 352.86-24.6L352.86-24.6 351.21-19.65Q347.76-20.7 345.51-20.7ZM366.51-35.05L373.51-35.05 373.51-24Q374.56-24.85 376.33-25.48 378.11-26.1 379.91-26.1L379.91-26.1Q384.01-26.1 386.66-22.98 389.31-19.85 389.31-14.05L389.31-14.05Q389.31-6.9 386.41-3.13 383.51 0.65 377.11 0.65L377.11 0.65Q374.36 0.65 371.21 0.13 368.06-0.4 366.51-1.1L366.51-1.1 366.51-35.05ZM376.11-5L376.11-5Q379.56-5 380.91-7.1 382.26-9.2 382.26-13.2 382.26-17.2 381.18-18.8 380.11-20.4 377.91-20.4 375.71-20.4 373.51-19.05L373.51-19.05 373.51-5.25Q374.86-5 376.11-5ZM412.71-12.1L399.16-12.1Q399.26-4.6 405.76-4.6L405.76-4.6Q408.81-4.6 411.81-5.75L411.81-5.75 413.01-1Q409.16 0.65 404.46 0.65L404.46 0.65Q392.61 0.65 392.61-13.3L392.61-13.3Q392.61-18.8 395.56-22.45 398.51-26.1 404.06-26.1L404.06-26.1Q408.51-26.1 410.93-23.73 413.36-21.35 413.36-17.1L413.36-17.1Q413.36-14.6 412.71-12.1L412.71-12.1ZM399.21-15.9L407.76-15.9 407.76-16.2Q407.76-21.15 404.26-21.15L404.26-21.15Q400.06-21.15 399.21-15.9L399.21-15.9ZM428.5 0.65L428.5 0.65Q423.35 0.65 419.95-2.68 416.55-6 416.55-12.73 416.55-19.45 419.9-22.78 423.25-26.1 428.5-26.1L428.5-26.1Q431.6-26.1 435.55-24.95L435.55-24.95 434.2-19.9Q431.15-20.6 429.3-20.6L429.3-20.6Q426.35-20.6 424.78-18.82 423.2-17.05 423.2-12.55 423.2-8.05 424.93-6.3 426.65-4.55 429.75-4.55L429.75-4.55Q431.35-4.55 434.65-5.05L434.65-5.05 435.5-0.5Q431.55 0.65 428.5 0.65ZM460.05-12.75Q460.05-5.8 456.95-2.58 453.85 0.65 448.8 0.65 443.75 0.65 440.78-2.55 437.8-5.75 437.8-12.7 437.8-19.65 440.88-22.88 443.95-26.1 448.95-26.1L448.95-26.1Q460.05-26.1 460.05-12.75L460.05-12.75ZM453.25-12.83Q453.25-17.4 452.15-19.05 451.05-20.7 448.93-20.7 446.8-20.7 445.68-19.05 444.55-17.4 444.55-12.7L444.55-12.7Q444.55-4.7 448.9-4.7L448.9-4.7Q450.95-4.7 452.1-6.48 453.25-8.25 453.25-12.83ZM470.7-22.8Q472-24.1 474.27-25.1 476.55-26.1 479.1-26.1 481.65-26.1 483.05-25.25 484.45-24.4 485.3-22.65L485.3-22.65Q486.65-24.05 488.97-25.08 491.3-26.1 493.65-26.1L493.65-26.1Q497.95-26.1 499.47-23.88 501-21.65 501-17.55L501-17.55 501 0 494 0 494-16.3Q494-19.5 492.65-20.1L492.65-20.1Q492-20.4 490.9-20.4L490.9-20.4Q488.1-20.4 486.15-18.55L486.15-18.55Q486.2-18.2 486.2-17.5L486.2-17.5 486.2 0 479.2 0 479.2-16.3Q479.2-19.5 477.85-20.1L477.85-20.1Q477.2-20.4 476.1-20.4L476.1-20.4Q473.3-20.4 471.35-18.55L471.35-18.55 471.35 0 464.35 0 464.35-25.65 470.1-25.65 470.7-22.8ZM525.25-12.1L511.7-12.1Q511.8-4.6 518.3-4.6L518.3-4.6Q521.35-4.6 524.35-5.75L524.35-5.75 525.55-1Q521.7 0.65 517 0.65L517 0.65Q505.15 0.65 505.15-13.3L505.15-13.3Q505.15-18.8 508.1-22.45 511.05-26.1 516.6-26.1L516.6-26.1Q521.05-26.1 523.47-23.73 525.9-21.35 525.9-17.1L525.9-17.1Q525.9-14.6 525.25-12.1L525.25-12.1ZM511.75-15.9L520.3-15.9 520.3-16.2Q520.3-21.15 516.8-21.15L516.8-21.15Q512.6-21.15 511.75-15.9L511.75-15.9ZM552.19-20.5L552.19-20.5Q548.09-20.5 546.44-18.15L546.44-18.15 546.44 0 539.44 0 539.44-25.65 545.24-25.65 545.79-22.4Q548.69-26.2 553.19-26.2L553.19-26.2Q554.44-26.2 555.49-25.95L555.49-25.95 554.34-20.2Q553.24-20.5 552.19-20.5ZM576.59-12.1L563.04-12.1Q563.14-4.6 569.64-4.6L569.64-4.6Q572.69-4.6 575.69-5.75L575.69-5.75 576.89-1Q573.04 0.65 568.34 0.65L568.34 0.65Q556.49 0.65 556.49-13.3L556.49-13.3Q556.49-18.8 559.44-22.45 562.39-26.1 567.94-26.1L567.94-26.1Q572.39-26.1 574.81-23.73 577.24-21.35 577.24-17.1L577.24-17.1Q577.24-14.6 576.59-12.1L576.59-12.1ZM563.09-15.9L571.64-15.9 571.64-16.2Q571.64-21.15 568.14-21.15L568.14-21.15Q563.94-21.15 563.09-15.9L563.09-15.9ZM603.53-5L604.48-0.85Q601.93 0.55 598.91 0.55 595.88 0.55 594.43-1.75L594.43-1.75Q591.53 0.65 587.63 0.65 583.73 0.65 581.73-1.33 579.73-3.3 579.73-6.7L579.73-6.7Q579.73-8.95 580.68-10.55 581.63-12.15 583.13-12.9L583.13-12.9Q585.88-14.2 588.86-14.2 591.83-14.2 593.63-14.05L593.63-14.05 593.63-16.5Q593.63-19.1 592.58-19.85 591.53-20.6 589.01-20.6 586.48-20.6 583.33-19.55L583.33-19.55 581.88-23.95Q583.73-25.05 586.41-25.63 589.08-26.2 590.98-26.2L590.98-26.2Q596.08-26.2 598.26-24.03 600.43-21.85 600.43-16.6L600.43-16.6 600.43-6.1Q600.43-4.7 601.68-4.7L601.68-4.7Q602.33-4.7 603.53-5L603.53-5ZM589.53-4L589.53-4Q591.63-4 593.63-5.3L593.63-5.3 593.63-10.55Q592.23-10.65 591.18-10.65L591.18-10.65Q586.23-10.65 586.23-7.45L586.23-7.45Q586.23-4 589.53-4ZM618.78-5.35L619.83-0.45Q617.28 0.65 614.88 0.65 612.48 0.65 610.93 0.1 609.38-0.45 608.61-1.15 607.83-1.85 607.43-3.2 607.03-4.55 606.96-5.48 606.88-6.4 606.88-8.05L606.88-8.05 606.88-35 613.93-35 613.93-7.65Q613.93-6.2 614.36-5.6 614.78-5 616.08-5 617.38-5 618.78-5.35L618.78-5.35ZM629.28-26.2L629.28 0 622.28 0 622.28-25.6 629.28-26.2ZM621.63-33.85Q621.63-35.55 622.83-36.75 624.03-37.95 625.73-37.95 627.43-37.95 628.63-36.75 629.83-35.55 629.83-33.88 629.83-32.2 628.63-30.95 627.43-29.7 625.73-29.7 624.03-29.7 622.83-30.93 621.63-32.15 621.63-33.85ZM637.18-8.25L637.18-8.25 637.18-20.8 632.68-21.1 632.68-25.2 637.33-25.6 637.33-31.45 644.33-32.05 644.33-25.65 651.63-25.65 651.23-20.8 644.28-20.8 644.28-7.6Q644.28-6.15 644.73-5.53 645.18-4.9 646.63-4.9 648.08-4.9 649.88-5.35L649.88-5.35 650.93-0.4Q648.48 0.65 645.95 0.65 643.43 0.65 642.15 0.35 640.88 0.05 640.05-0.35 639.23-0.75 638.65-1.53 638.08-2.3 637.8-2.9 637.53-3.5 637.38-4.6L637.38-4.6Q637.18-6.1 637.18-8.25ZM656.32 10.65L656.32 10.65Q654.07 10.65 651.07 9.75L651.07 9.75 652.12 4.9Q652.12 4.95 653.62 5.18 655.12 5.4 655.57 5.4L655.57 5.4Q658.37 5.4 659.55 4.38 660.72 3.35 661.67-0.65L661.67-0.65 652.32-25 658.97-25.85 664.72-8.15 669.82-25.65 676.57-25.65 668.47-2.1Q665.87 5.4 663.55 8.03 661.22 10.65 656.32 10.65Z" opacity="1" transform="matrix(1,0,0,1,0,0)" fill="#000000" class="undefined-text-1" data-fill-palette-color="secondary" id="text-1"></path></svg></g></svg></g></svg></g></svg></g></svg></g></svg></g></svg></g></svg></g></svg><rect width="395.52" height="247.2" fill="none" stroke="none" visibility="hidden"></rect></g></svg></g></svg>